<?xml version="1.0" encoding="utf-8"?>
<!-- Generator: Adobe Illustrator 16.0.3, SVG Export Plug-In . SVG Version: 6.00 Build 0)  -->
<!DOCTYPE svg PUBLIC "-//W3C//DTD SVG 1.1//EN" "http://www.w3.org/Graphics/SVG/1.1/DTD/svg11.dtd">
<svg version="1.1" xmlns="http://www.w3.org/2000/svg" xmlns:xlink="http://www.w3.org/1999/xlink" x="0px" y="0px" width="420px"
	 height="360px" viewBox="0 0 420 360" enable-background="new 0 0 420 360" xml:space="preserve">
<g id="Layer_1" display="none">
	<g display="inline">
		<g>
			<g enable-background="new    ">
				<g>
					<polygon fill="#E9E9E9" points="422.473,27.722 421.779,272.271 210.342,395.145 211.036,150.596 					"/>
				</g>
				<g>
					<polygon fill="#939393" points="211.036,150.596 210.342,395.145 -2.478,272.272 -1.784,27.724 					"/>
				</g>
				<g>
					<polygon fill="#B6B6B6" points="422.473,27.722 211.036,150.596 -1.784,27.724 209.652,-95.149 					"/>
				</g>
			</g>
		</g>
	</g>
</g>
<g id="Layer_3" display="none">
	<rect x="-2.478" y="180" display="inline" fill="none" width="420" height="60"/>
	<text transform="matrix(1 0 0 1 5.3779 208.7432)" display="inline"><tspan x="0" y="0" font-family="'Lato-Light'" font-size="39">Campaign</tspan><tspan x="201.958" y="0" font-family="'Lato-Light'" font-size="39"> </tspan><tspan x="209.484" y="0" font-family="'Lato-Regular'" font-size="39">Manager</tspan></text>
</g>
<g id="Layer_1_copy">
	<g>
		<g enable-background="new    ">
			<g>
				<polygon fill="#E9E9E9" points="349.031,95.603 348.577,255.623 210.223,336.026 210.677,176.005 				"/>
			</g>
			<g>
				<polygon fill="#939393" points="210.677,176.005 210.223,336.026 70.964,255.625 71.417,95.604 				"/>
			</g>
			<g>
				<polygon fill="#B6B6B6" points="349.031,95.603 210.677,176.005 71.417,95.604 209.771,15.201 				"/>
			</g>
		</g>
	</g>
</g>
<g id="Layer_3_copy" display="none">
	<g display="inline">
		<path fill="#E9E9E9" d="M31.079,204.103c0.13,0,0.24,0.045,0.332,0.136l0.78,0.839c-0.572,0.611-1.196,1.16-1.872,1.647
			c-0.676,0.488-1.414,0.904-2.213,1.248c-0.8,0.345-1.677,0.611-2.633,0.8s-2.005,0.282-3.149,0.282
			c-1.911,0-3.663-0.334-5.255-1.004c-1.593-0.669-2.958-1.618-4.095-2.847s-2.025-2.714-2.662-4.456
			c-0.637-1.742-0.956-3.679-0.956-5.811c0-2.093,0.328-4.004,0.985-5.733c0.656-1.729,1.58-3.214,2.769-4.456
			c1.189-1.24,2.613-2.203,4.271-2.886c1.657-0.683,3.487-1.023,5.489-1.023c1.001,0,1.917,0.075,2.75,0.224
			c0.832,0.15,1.608,0.365,2.33,0.645s1.401,0.627,2.038,1.043c0.637,0.416,1.261,0.896,1.872,1.443l-0.604,0.877
			c-0.104,0.156-0.267,0.234-0.487,0.234c-0.117,0-0.267-0.068-0.449-0.205s-0.413-0.306-0.692-0.508
			c-0.28-0.201-0.618-0.422-1.014-0.662c-0.397-0.24-0.868-0.461-1.414-0.663c-0.546-0.202-1.177-0.37-1.892-0.507
			c-0.715-0.137-1.528-0.205-2.438-0.205c-1.677,0-3.218,0.289-4.622,0.867c-1.404,0.579-2.613,1.404-3.627,2.477
			c-1.014,1.072-1.804,2.373-2.369,3.9c-0.566,1.527-0.849,3.24-0.849,5.139c0,1.949,0.28,3.691,0.839,5.226
			c0.559,1.534,1.332,2.831,2.32,3.891c0.988,1.06,2.155,1.872,3.5,2.438c1.346,0.565,2.805,0.848,4.378,0.848
			c0.988,0,1.869-0.064,2.642-0.194s1.485-0.325,2.135-0.585c0.65-0.261,1.254-0.579,1.813-0.956s1.112-0.819,1.658-1.326
			c0.065-0.052,0.127-0.094,0.185-0.126C30.932,204.118,31,204.103,31.079,204.103z"/>
		<path fill="#E9E9E9" d="M58.651,208.743H57.11c-0.182,0-0.331-0.049-0.448-0.146s-0.208-0.224-0.273-0.38l-3.256-8.015H39.58
			l-3.237,8.015c-0.052,0.144-0.144,0.267-0.273,0.37c-0.13,0.104-0.286,0.156-0.468,0.156h-1.521l11.291-27.593h1.989
			L58.651,208.743z M40.185,198.72h12.363l-5.635-13.942c-0.091-0.221-0.182-0.471-0.273-0.75c-0.091-0.279-0.182-0.576-0.273-0.888
			c-0.091,0.312-0.182,0.608-0.273,0.888c-0.091,0.279-0.183,0.535-0.273,0.77L40.185,198.72z"/>
		<path fill="#E9E9E9" d="M76.2,201.879c0.078-0.208,0.159-0.412,0.244-0.614c0.084-0.201,0.178-0.393,0.283-0.575l10.842-19.168
			c0.104-0.169,0.208-0.273,0.312-0.313s0.247-0.059,0.429-0.059h1.384v27.593h-1.755v-23.517c0-0.338,0.02-0.695,0.059-1.072
			l-10.862,19.285c-0.182,0.338-0.442,0.507-0.78,0.507h-0.312c-0.325,0-0.585-0.169-0.78-0.507L64.11,184.135
			c0.039,0.377,0.059,0.74,0.059,1.092v23.517h-1.735V181.15h1.365c0.182,0,0.328,0.02,0.439,0.059
			c0.11,0.039,0.217,0.144,0.322,0.313l11.134,19.188C75.888,201.073,76.057,201.463,76.2,201.879z"/>
		<path fill="#E9E9E9" d="M99.873,197.628v11.115h-1.989V181.15h7.117c3.237,0,5.678,0.709,7.322,2.126s2.467,3.438,2.467,6.064
			c0,1.209-0.224,2.32-0.673,3.334c-0.448,1.015-1.095,1.889-1.94,2.623c-0.845,0.734-1.872,1.307-3.081,1.716
			c-1.209,0.41-2.574,0.614-4.095,0.614H99.873z M99.873,196.029h5.128c1.222,0,2.314-0.169,3.276-0.507
			c0.961-0.338,1.777-0.807,2.447-1.404s1.183-1.303,1.541-2.116c0.357-0.813,0.537-1.699,0.537-2.661
			c0-2.119-0.653-3.751-1.96-4.895s-3.253-1.716-5.84-1.716h-5.128V196.029z"/>
		<path fill="#E9E9E9" d="M138.327,208.743h-1.541c-0.182,0-0.331-0.049-0.448-0.146s-0.208-0.224-0.273-0.38l-3.256-8.015h-13.553
			l-3.237,8.015c-0.052,0.144-0.144,0.267-0.273,0.37c-0.13,0.104-0.286,0.156-0.468,0.156h-1.521l11.291-27.593h1.989
			L138.327,208.743z M119.86,198.72h12.363l-5.635-13.942c-0.091-0.221-0.182-0.471-0.273-0.75
			c-0.091-0.279-0.182-0.576-0.273-0.888c-0.091,0.312-0.182,0.608-0.273,0.888c-0.091,0.279-0.183,0.535-0.273,0.77L119.86,198.72z
			"/>
		<path fill="#E9E9E9" d="M144.839,208.743h-2.009V181.15h2.009V208.743z"/>
		<path fill="#E9E9E9" d="M165.041,207.437c0.949,0,1.813-0.049,2.593-0.146c0.78-0.097,1.504-0.243,2.174-0.438
			c0.669-0.195,1.307-0.432,1.911-0.712c0.604-0.279,1.212-0.595,1.823-0.945v-7.43h-5.304c-0.143,0-0.263-0.045-0.361-0.137
			c-0.097-0.091-0.146-0.194-0.146-0.312v-1.092h7.625v9.808c-0.689,0.481-1.404,0.91-2.145,1.287
			c-0.741,0.378-1.534,0.692-2.379,0.946c-0.845,0.253-1.755,0.448-2.73,0.585c-0.975,0.137-2.042,0.204-3.198,0.204
			c-1.989,0-3.806-0.334-5.45-1.004c-1.645-0.669-3.055-1.618-4.231-2.847c-1.177-1.229-2.09-2.714-2.74-4.456
			c-0.65-1.742-0.975-3.679-0.975-5.811s0.325-4.066,0.975-5.802c0.65-1.735,1.573-3.218,2.769-4.446
			c1.196-1.229,2.648-2.177,4.358-2.847c1.709-0.669,3.624-1.004,5.743-1.004c1.053,0,2.024,0.071,2.915,0.214
			c0.89,0.144,1.719,0.355,2.486,0.635s1.482,0.623,2.145,1.033c0.663,0.409,1.3,0.881,1.911,1.414l-0.527,0.857
			c-0.117,0.195-0.28,0.293-0.487,0.293c-0.117,0-0.228-0.026-0.332-0.078c-0.195-0.078-0.478-0.26-0.848-0.547
			c-0.371-0.285-0.871-0.584-1.501-0.896c-0.631-0.313-1.42-0.592-2.37-0.838c-0.949-0.248-2.099-0.371-3.451-0.371
			c-1.794,0-3.413,0.286-4.855,0.857c-1.443,0.572-2.675,1.392-3.695,2.457c-1.021,1.066-1.807,2.367-2.359,3.9
			c-0.553,1.534-0.829,3.257-0.829,5.168c0,1.949,0.28,3.698,0.839,5.245c0.559,1.547,1.342,2.856,2.35,3.93
			c1.007,1.072,2.216,1.895,3.627,2.467C161.781,207.15,163.337,207.437,165.041,207.437z"/>
		<path fill="#E9E9E9" d="M183.194,181.219c0.104,0.046,0.214,0.146,0.332,0.303l17.862,23.906c-0.039-0.39-0.059-0.767-0.059-1.131
			V181.15h1.755v27.593h-0.956c-0.299,0-0.54-0.13-0.722-0.39l-17.94-23.946c0.039,0.39,0.059,0.761,0.059,1.111v23.225h-1.735
			V181.15h0.975C182.947,181.15,183.09,181.174,183.194,181.219z"/>
		<path fill="#939393" d="M231.739,199.627c0.137,0.345,0.27,0.692,0.399,1.043c0.13-0.363,0.267-0.712,0.41-1.043
			c0.143-0.331,0.305-0.666,0.487-1.004l9.457-17.18c0.169-0.299,0.345-0.48,0.527-0.547c0.182-0.064,0.441-0.097,0.779-0.097h2.789
			v27.943h-3.315v-20.534c0-0.272,0.007-0.564,0.02-0.877s0.032-0.631,0.059-0.955l-9.574,17.472
			c-0.325,0.585-0.78,0.878-1.365,0.878h-0.546c-0.585,0-1.04-0.293-1.365-0.878l-9.789-17.53c0.039,0.338,0.068,0.67,0.088,0.994
			c0.02,0.325,0.029,0.624,0.029,0.896v20.534h-3.315V180.8h2.789c0.338,0,0.598,0.032,0.78,0.097
			c0.182,0.066,0.357,0.248,0.526,0.547l9.652,17.199C231.443,198.954,231.603,199.282,231.739,199.627z"/>
		<path fill="#939393" d="M276.385,208.743h-2.925c-0.339,0-0.611-0.084-0.819-0.254c-0.208-0.168-0.364-0.383-0.468-0.644
			l-2.613-6.746h-12.539l-2.612,6.746c-0.092,0.234-0.247,0.442-0.468,0.624c-0.222,0.183-0.495,0.273-0.819,0.273h-2.925
			l11.173-27.943h3.842L276.385,208.743z M258.074,198.369h10.433L264.119,187c-0.286-0.701-0.565-1.578-0.839-2.632
			c-0.143,0.533-0.282,1.024-0.419,1.472c-0.137,0.449-0.271,0.842-0.399,1.18L258.074,198.369z"/>
		<path fill="#939393" d="M282.614,180.926c0.162,0.086,0.348,0.258,0.556,0.518l16.186,21.06c-0.039-0.338-0.065-0.666-0.078-0.984
			c-0.014-0.318-0.02-0.627-0.02-0.927V180.8h3.314v27.943h-1.911c-0.299,0-0.549-0.052-0.75-0.156
			c-0.202-0.104-0.4-0.279-0.595-0.526L283.15,187.02c0.026,0.326,0.046,0.645,0.059,0.956s0.02,0.599,0.02,0.858v19.909h-3.315
			V180.8h1.95C282.201,180.8,282.451,180.842,282.614,180.926z"/>
		<path fill="#939393" d="M332.388,208.743h-2.925c-0.339,0-0.611-0.084-0.819-0.254c-0.208-0.168-0.364-0.383-0.468-0.644
			l-2.613-6.746h-12.539l-2.612,6.746c-0.092,0.234-0.247,0.442-0.468,0.624c-0.222,0.183-0.495,0.273-0.819,0.273h-2.925
			l11.173-27.943h3.842L332.388,208.743z M314.077,198.369h10.433L320.122,187c-0.286-0.701-0.565-1.578-0.839-2.632
			c-0.143,0.533-0.282,1.024-0.419,1.472c-0.137,0.449-0.271,0.842-0.399,1.18L314.077,198.369z"/>
		<path fill="#939393" d="M347.558,205.994c0.754,0,1.446-0.036,2.077-0.107c0.63-0.071,1.225-0.179,1.784-0.322
			c0.559-0.143,1.085-0.314,1.579-0.517c0.494-0.201,0.988-0.432,1.482-0.692v-6.162h-4.329c-0.247,0-0.445-0.071-0.595-0.214
			c-0.149-0.144-0.225-0.318-0.225-0.526v-2.146h8.58v10.725c-0.702,0.508-1.434,0.949-2.193,1.326
			c-0.761,0.378-1.573,0.692-2.438,0.946c-0.865,0.253-1.791,0.441-2.779,0.565c-0.988,0.123-2.061,0.185-3.218,0.185
			c-2.027,0-3.887-0.348-5.576-1.043c-1.69-0.695-3.146-1.67-4.368-2.925c-1.223-1.255-2.175-2.759-2.857-4.515
			c-0.682-1.755-1.023-3.686-1.023-5.791c0-2.132,0.335-4.076,1.004-5.83c0.67-1.756,1.625-3.26,2.867-4.515
			c1.241-1.255,2.742-2.226,4.504-2.915s3.734-1.033,5.919-1.033c1.104,0,2.132,0.08,3.081,0.243
			c0.948,0.163,1.829,0.396,2.642,0.702s1.563,0.676,2.253,1.111c0.688,0.436,1.332,0.926,1.93,1.473l-1.072,1.716
			c-0.221,0.351-0.507,0.526-0.857,0.526c-0.209,0-0.437-0.071-0.683-0.215c-0.325-0.182-0.689-0.402-1.093-0.662
			c-0.402-0.261-0.894-0.511-1.472-0.752c-0.579-0.24-1.261-0.445-2.048-0.613c-0.786-0.17-1.719-0.254-2.798-0.254
			c-1.573,0-2.997,0.257-4.271,0.77c-1.274,0.515-2.359,1.248-3.257,2.204c-0.896,0.956-1.586,2.112-2.066,3.472
			c-0.481,1.357-0.722,2.883-0.722,4.572c0,1.768,0.25,3.344,0.751,4.729c0.5,1.385,1.205,2.558,2.115,3.52
			c0.91,0.963,1.989,1.697,3.237,2.204S346.05,205.994,347.558,205.994z"/>
		<path fill="#939393" d="M380.942,180.8v3.081h-13.416v9.282h10.861v2.964h-10.861v9.535h13.416v3.081h-17.219V180.8H380.942z"/>
		<path fill="#939393" d="M390.536,197.082v11.661h-3.764V180.8h7.897c1.768,0,3.295,0.179,4.582,0.536s2.35,0.875,3.188,1.551
			s1.459,1.491,1.862,2.447c0.402,0.955,0.604,2.024,0.604,3.207c0,0.988-0.156,1.911-0.468,2.77
			c-0.313,0.857-0.764,1.628-1.355,2.311s-1.313,1.265-2.164,1.745c-0.852,0.481-1.817,0.845-2.896,1.092
			c0.469,0.273,0.884,0.67,1.248,1.189l8.151,11.096h-3.354c-0.688,0-1.196-0.267-1.521-0.8l-7.254-9.983
			c-0.222-0.313-0.462-0.536-0.722-0.673s-0.65-0.205-1.17-0.205H390.536z M390.536,194.333h3.958c1.104,0,2.077-0.134,2.915-0.4
			c0.839-0.266,1.541-0.644,2.106-1.131s0.991-1.069,1.277-1.745c0.285-0.676,0.429-1.424,0.429-2.242
			c0-1.664-0.549-2.918-1.647-3.764s-2.733-1.268-4.904-1.268h-4.134V194.333z"/>
	</g>
</g>
</svg>
